<svg width="25" height="21" fill="none" xmlns="http://www.w3.org/2000/svg"><path fill-rule="evenodd" clip-rule="evenodd" d="M-.419 2.717A3.345 3.345 0 01.723.852 3.2 3.2 0 012.75.125h19.5a3.2 3.2 0 012.026.727 3.345 3.345 0 011.143 1.865L12.5 10.815-.419 2.717zM-.5 4.62v11.84l9.43-5.93L-.5 4.62zm10.987 6.888L-.19 18.22a3.32 3.32 0 001.2 1.39 3.19 3.19 0 001.74.515h19.5c.616 0 1.218-.179 1.738-.517.52-.337.937-.82 1.2-1.39l-10.676-6.711-2.012 1.261-2.013-1.261v.001zm5.583-.976l9.43 5.928V4.62l-9.43 5.91v.002z" fill="#23A6F0"/></svg>