<svg width="33" height="32" fill="none" xmlns="http://www.w3.org/2000/svg"><g clip-path="url(#clip0_3_810)"><g clip-path="url(#clip1_3_810)"><path d="M30.625 7.563V5.688H19.151a2.826 2.826 0 00-1.713-1.714V0h-1.875v3.974a2.826 2.826 0 00-1.714 1.713H2.375v1.875h2.344L.5 17.688v.188a4.693 4.693 0 004.688 4.688h1.875a4.693 4.693 0 004.687-4.688v-.188L7.531 7.563h6.318a2.827 2.827 0 001.713 1.714V22.72a4.7 4.7 0 00-3.67 3.736 4.694 4.694 0 00-3.83 4.608V32h16.876v-.938a4.694 4.694 0 00-3.83-4.607 4.7 4.7 0 00-3.67-3.736V9.276a2.826 2.826 0 001.713-1.713h6.318L21.25 17.688v.187a4.693 4.693 0 004.688 4.688h1.875a4.693 4.693 0 004.687-4.688v-.188L28.281 7.563h2.344zm-24.5 1.5l3.281 7.874H2.844l3.281-7.875zm.938 11.624H5.188a2.817 2.817 0 01-2.652-1.875h7.178a2.817 2.817 0 01-2.652 1.875zM26.875 9.063l3.281 7.876h-6.562l3.281-7.875zm.938 11.626h-1.875a2.817 2.817 0 01-2.652-1.876h7.178a2.817 2.817 0 01-2.651 1.875zm-4.911 9.437H10.098a2.818 2.818 0 012.652-1.875h7.5c1.222 0 2.265.784 2.652 1.875zm-3.75-3.75h-5.303A2.817 2.817 0 0116.5 24.5c1.222 0 2.264.784 2.651 1.875zM16.5 7.562a.939.939 0 010-1.875.939.939 0 010 1.875z" fill="#23A6F0"/></g></g><defs><clipPath id="clip0_3_810"><path fill="#fff" transform="translate(.5)" d="M0 0h32v32H0z"/></clipPath><clipPath id="clip1_3_810"><path fill="#fff" transform="translate(.5)" d="M0 0h32v32H0z"/></clipPath></defs></svg>