<svg width="33" height="32" fill="none" xmlns="http://www.w3.org/2000/svg"><g clip-path="url(#clip0_3_819)" fill="#23A6F0"><path d="M11.58 6.165H5.984a.937.937 0 100 1.875h5.596a.938.938 0 000-1.875zm0 3.75H5.984a.937.937 0 100 1.875h5.596a.938.938 0 000-1.875zm0 3.751H5.984a.937.937 0 100 1.875h5.596a.938.938 0 000-1.875zm0 3.749H5.984a.937.937 0 100 1.875h5.596a.938.938 0 000-1.875zm0 3.814H5.984a.938.938 0 000 1.875h5.596a.938.938 0 000-1.875zM14.729 8.04h5.595a.937.937 0 100-1.875H14.73a.938.938 0 000 1.875zm0 3.75h5.595a.937.937 0 100-1.875H14.73a.938.938 0 000 1.875zm3.632 2.813a.937.937 0 00-.937-.937h-2.695a.938.938 0 000 1.875h2.695c.518 0 .937-.42.937-.938zm8.881 7.021a.938.938 0 00-1.318.144l-2.415 3.01-1.494-1.082a.938.938 0 10-1.1 1.518l2.217 1.607a.935.935 0 001.281-.173l2.974-3.706a.937.937 0 00-.145-1.318z"/><path d="M29.612 18.746a7.732 7.732 0 00-4.49-2.256V3.776A3.78 3.78 0 0021.345 0H4.963a3.78 3.78 0 00-3.776 3.776v21.717a3.78 3.78 0 003.776 3.776H18.14A7.717 7.717 0 0024.06 32c4.293 0 7.786-3.495 7.786-7.791a7.747 7.747 0 00-2.234-5.463zm-26.55 6.747V3.776c0-1.048.853-1.901 1.901-1.901h16.383c1.048 0 1.9.853 1.9 1.9V16.46c-3.912.408-6.972 3.727-6.972 7.749 0 1.114.233 2.192.678 3.184H4.963c-1.048 0-1.9-.852-1.9-1.9zm20.998 4.632a5.866 5.866 0 01-4.723-2.358 5.868 5.868 0 01-1.188-3.558 5.92 5.92 0 016.004-5.915h.014a5.874 5.874 0 014.107 1.767 5.884 5.884 0 011.697 4.148c0 3.262-2.652 5.916-5.91 5.916z"/></g><defs><clipPath id="clip0_3_819"><path fill="#fff" transform="translate(.5)" d="M0 0h32v32H0z"/></clipPath></defs></svg>