<svg width="33" height="32" fill="none" xmlns="http://www.w3.org/2000/svg"><g clip-path="url(#clip0_3_795)"><g clip-path="url(#clip1_3_795)"><g clip-path="url(#clip2_3_795)" fill="#23A6F0"><path d="M.5 29.333h18.667V32H.5v-2.667zm16-2.688a1.333 1.333 0 00-1.334-1.333H4.5a1.333 1.333 0 00-1.333 1.333V28H16.5v-1.355zm2.142-10.901a9.302 9.302 0 00-1.546 2.225L28.07 28.943a1.333 1.333 0 001.886 0l1.885-1.885a1.333 1.333 0 000-1.886L20.867 14.2a9.08 9.08 0 00-2.225 1.544zm-6.6-6.6a11.562 11.562 0 01-3.446 2.21l6.891 6.891A11.751 11.751 0 0117.7 14.8a11.575 11.575 0 013.447-2.21L14.255 5.7a11.76 11.76 0 01-2.213 3.444zM16.754.66L14.87 2.547c-.52.52-.52 1.365 0 1.885l7.541 7.542c.52.52 1.365.52 1.886 0l1.885-1.886c.52-.52.52-1.364 0-1.885L18.64.661a1.333 1.333 0 00-1.886 0zM5.44 11.972l-1.885 1.886c-.52.52-.52 1.364 0 1.885l7.541 7.541c.52.52 1.365.52 1.885 0l1.886-1.885c.52-.52.52-1.365 0-1.886l-7.542-7.54a1.333 1.333 0 00-1.885 0z"/></g></g></g><defs><clipPath id="clip0_3_795"><path fill="#fff" transform="translate(.5)" d="M0 0h32v32H0z"/></clipPath><clipPath id="clip1_3_795"><path fill="#fff" transform="translate(.5 -.282)" d="M0 0h31.732v32.282H0z"/></clipPath><clipPath id="clip2_3_795"><path fill="#fff" transform="translate(.5 -.282)" d="M0 0h31.732v32.282H0z"/></clipPath></defs></svg>