<svg width="33" height="32" fill="none" xmlns="http://www.w3.org/2000/svg"><g clip-path="url(#clip0_3_836)"><g clip-path="url(#clip1_3_836)"><g clip-path="url(#clip2_3_836)"><path d="M28.206 8.305a7.475 7.475 0 002.731-1.583l-1.266-1.393a5.615 5.615 0 01-6.462.774 14.041 14.041 0 00-3.97-1.438c.253-.452.398-.973.398-1.528A3.14 3.14 0 0016.5 0a3.14 3.14 0 00-3.137 3.137c0 .555.145 1.076.398 1.528-1.384.277-2.727.76-3.97 1.438a5.615 5.615 0 01-6.462-.774L2.063 6.722a7.475 7.475 0 002.965 1.654L.5 15.734v1.207a5.968 5.968 0 005.96 5.961h1.256c3.075 0 5.646-2.34 5.96-5.333v-1.821L9.388 8.313a7.488 7.488 0 001.305-.558 12.133 12.133 0 014.867-1.449V26.19H14.1a4.875 4.875 0 00-4.87 4.87V32h14.487v-.94a4.875 4.875 0 00-4.87-4.87h-1.405V6.306c1.677.132 3.335.614 4.867 1.45.495.27 1.011.479 1.538.629l-4.523 7.349v1.207a5.968 5.968 0 005.961 5.961h1.255c3.075 0 5.646-2.34 5.961-5.333v-1.821l-4.294-7.443zM2.546 16l4.44-7.216h.5L11.649 16H2.546zm18.824 0l4.44-7.216h.5L30.471 16H21.37z" fill="#23A6F0"/></g></g></g><defs><clipPath id="clip0_3_836"><path fill="#fff" transform="translate(.5)" d="M0 0h32v32H0z"/></clipPath><clipPath id="clip1_3_836"><path fill="#fff" transform="translate(.5)" d="M0 0h32v32H0z"/></clipPath><clipPath id="clip2_3_836"><path fill="#fff" transform="translate(.5)" d="M0 0h32v32H0z"/></clipPath></defs></svg>