<svg width="20" height="20" viewBox="0 0 20 20" fill="none" xmlns="http://www.w3.org/2000/svg">
<path d="M19.1228 7.41915C19.0651 7.24934 18.959 7.10013 18.8175 6.98994C18.676 6.87975 18.5054 6.81341 18.3266 6.7991L13.0974 6.38359L10.8346 1.37458C10.7626 1.21324 10.6453 1.07622 10.4971 0.980034C10.3489 0.883849 10.176 0.832617 9.99932 0.83252C9.82263 0.832423 9.64968 0.883465 9.50136 0.979487C9.35303 1.07551 9.23567 1.21241 9.16343 1.37366L6.90061 6.38359L1.67146 6.7991C1.49577 6.81302 1.3278 6.87726 1.18767 6.98413C1.04753 7.09101 0.941149 7.236 0.881253 7.40175C0.821358 7.5675 0.810484 7.747 0.849931 7.91877C0.889379 8.09054 0.977478 8.24731 1.10369 8.37032L4.968 12.1374L3.60132 18.0554C3.55982 18.2345 3.57312 18.422 3.63949 18.5935C3.70587 18.765 3.82225 18.9125 3.97353 19.0171C4.12482 19.1216 4.30403 19.1782 4.4879 19.1796C4.67177 19.181 4.85182 19.1271 5.00469 19.0249L9.99903 15.6954L14.9934 19.0249C15.1496 19.1286 15.3339 19.182 15.5214 19.1779C15.7088 19.1738 15.8906 19.1124 16.0421 19.0019C16.1937 18.8914 16.3077 18.7372 16.369 18.5599C16.4303 18.3827 16.4358 18.1909 16.3848 18.0105L14.7072 12.1402L18.8678 8.396C19.1402 8.15018 19.2402 7.76678 19.1228 7.41915V7.41915Z" fill="#F3CD03"/>
</svg>
