<svg width="19" height="17" fill="none" xmlns="http://www.w3.org/2000/svg"><path d="M9.5 3.953L8.138 2.557l-.001-.001a3.738 3.738 0 00-5.333 0 3.875 3.875 0 000 5.438h0l6.475 6.557.222.225.223-.225 6.475-6.556h0a3.875 3.875 0 000-5.439 3.731 3.731 0 00-2.666-1.119s0 0 0 0v.313a3.4 3.4 0 00-2.45 1.038M9.5 3.953l1.357-1.384h0l.224.219M9.5 3.953l1.356-1.383M9.501 3.953l1.356-1.383m.225.218l-.225-.218m.225.218l-.225-.218m-.44-.451v.001l-.695.7-.222.224-.221-.224-.694-.7h-.001a4.369 4.369 0 00-6.23 0l8.063-.001zm0 0A4.356 4.356 0 0113.531.813V.5m-3.114 1.619L13.532.5m0 0v.313a4.37 4.37 0 013.114 1.306 4.513 4.513 0 010 6.324s0 0 0 0L9.5 15.68 2.355 8.444s0 0 0 0a4.512 4.512 0 010-6.325L13.532.5z" fill="#BDBDBD" stroke="#252B42" stroke-width=".625"/></svg>