<svg width="33" height="32" viewBox="0 0 33 32" fill="none" xmlns="http://www.w3.org/2000/svg">
<g clip-path="url(#clip0_3_795)">
<g clip-path="url(#clip1_3_795)">
<g clip-path="url(#clip2_3_795)">
<path d="M0.5 29.3334H19.1667V32.0001H0.5V29.3334Z" fill="#23A6F0"/>
<path d="M16.4998 26.6451C16.4998 26.2915 16.3594 25.9523 16.1093 25.7023C15.8593 25.4522 15.5201 25.3118 15.1665 25.3118H4.49984C4.14622 25.3118 3.80708 25.4522 3.55703 25.7023C3.30698 25.9523 3.1665 26.2915 3.1665 26.6451V28.0001H16.4998V26.6451Z" fill="#23A6F0"/>
<path d="M18.642 15.7441C18.0208 16.4062 17.4998 17.1557 17.0957 17.9688L28.0704 28.9434C28.3204 29.1934 28.6595 29.3338 29.013 29.3338C29.3666 29.3338 29.7057 29.1934 29.9557 28.9434L31.8414 27.0578C31.9652 26.934 32.0634 26.787 32.1304 26.6252C32.1974 26.4634 32.2319 26.29 32.2319 26.1149C32.2319 25.9398 32.1974 25.7665 32.1304 25.6047C32.0634 25.4429 31.9652 25.2959 31.8414 25.1721L20.8667 14.2004C20.0522 14.601 19.3023 15.1213 18.642 15.7441V15.7441Z" fill="#23A6F0"/>
<path d="M12.0424 9.14444C11.0341 10.0802 9.86689 10.8284 8.5957 11.3541L15.487 18.2454C16.0174 16.9764 16.7664 15.8104 17.7 14.8004C18.7084 13.8648 19.8756 13.1164 21.1467 12.5904L14.255 5.70044C13.7245 6.96896 12.9756 8.13461 12.0424 9.14444V9.14444Z" fill="#23A6F0"/>
<path d="M16.7543 0.660648L14.8689 2.54598C14.3483 3.0666 14.3483 3.91069 14.8689 4.43131L22.4103 11.9726C22.9309 12.4933 23.775 12.4933 24.2956 11.9726L26.1809 10.0873C26.7016 9.56669 26.7016 8.7226 26.1809 8.20198L18.6396 0.660648C18.119 0.140027 17.2749 0.140027 16.7543 0.660648Z" fill="#23A6F0"/>
<path d="M5.44006 11.9722L3.55473 13.8575C3.03411 14.3781 3.03411 15.2222 3.55473 15.7428L11.0961 23.2842C11.6167 23.8048 12.4608 23.8048 12.9814 23.2842L14.8667 21.3988C15.3873 20.8782 15.3873 20.0341 14.8667 19.5135L7.32539 11.9722C6.80477 11.4515 5.96068 11.4515 5.44006 11.9722Z" fill="#23A6F0"/>
</g>
</g>
</g>
<defs>
<clipPath id="clip0_3_795">
<rect width="32" height="32" fill="white" transform="translate(0.5)"/>
</clipPath>
<clipPath id="clip1_3_795">
<rect width="31.7319" height="32.282" fill="white" transform="translate(0.5 -0.281738)"/>
</clipPath>
<clipPath id="clip2_3_795">
<rect width="31.7319" height="32.282" fill="white" transform="translate(0.5 -0.281738)"/>
</clipPath>
</defs>
</svg>
