<svg width="33" height="32" viewBox="0 0 33 32" fill="none" xmlns="http://www.w3.org/2000/svg">
<g clip-path="url(#clip0_3_810)">
<g clip-path="url(#clip1_3_810)">
<path d="M30.625 7.5625V5.6875H19.1513C18.8683 4.88975 18.2352 4.25669 17.4375 3.97375V0H15.5625V3.97375C14.7648 4.25669 14.1317 4.88975 13.8488 5.6875H2.375V7.5625H4.71875L0.5 17.6875V17.875C0.5 20.4597 2.60281 22.5625 5.1875 22.5625H7.0625C9.64719 22.5625 11.75 20.4597 11.75 17.875V17.6875L7.53125 7.5625H13.8488C14.1317 8.36025 14.7648 8.99331 15.5625 9.27625V22.7194C13.7021 23.0986 12.2401 24.5835 11.8925 26.4551C9.71613 26.8592 8.0625 28.7708 8.0625 31.0625V32H24.9376V31.0625C24.9376 28.7708 23.2839 26.8592 21.1076 26.455C20.7599 24.5834 19.2979 23.0984 17.4375 22.7193V9.27625C18.2352 8.99331 18.8683 8.36025 19.1513 7.5625H25.4688L21.25 17.6875V17.875C21.25 20.4597 23.3528 22.5625 25.9375 22.5625H27.8125C30.3972 22.5625 32.5 20.4597 32.5 17.875V17.6875L28.2812 7.5625H30.625ZM6.125 9.0625L9.40625 16.9375H2.84375L6.125 9.0625ZM7.0625 20.6875H5.1875C3.96537 20.6875 2.92325 19.9036 2.53625 18.8119H9.71375C9.32675 19.9036 8.28463 20.6875 7.0625 20.6875V20.6875ZM26.875 9.0625L30.1562 16.9375H23.5938L26.875 9.0625ZM27.8125 20.6875H25.9375C24.7154 20.6875 23.6732 19.9036 23.2862 18.8119H30.4638C30.0768 19.9036 29.0346 20.6875 27.8125 20.6875V20.6875ZM22.9019 30.125H10.0981C10.4851 29.0337 11.5278 28.25 12.75 28.25H20.2501C21.4723 28.25 22.5149 29.0337 22.9019 30.125V30.125ZM19.1513 26.375H13.8488C14.2358 25.2838 15.2779 24.5 16.5001 24.5C17.7222 24.5 18.7643 25.2838 19.1513 26.375ZM16.5 7.5625C15.9831 7.5625 15.5625 7.14194 15.5625 6.625C15.5625 6.10806 15.9831 5.6875 16.5 5.6875C17.0169 5.6875 17.4375 6.10806 17.4375 6.625C17.4375 7.14194 17.0169 7.5625 16.5 7.5625Z" fill="#23A6F0"/>
</g>
</g>
<defs>
<clipPath id="clip0_3_810">
<rect width="32" height="32" fill="white" transform="translate(0.5)"/>
</clipPath>
<clipPath id="clip1_3_810">
<rect width="32" height="32" fill="white" transform="translate(0.5)"/>
</clipPath>
</defs>
</svg>
