<svg width="33" height="32" viewBox="0 0 33 32" fill="none" xmlns="http://www.w3.org/2000/svg">
<g clip-path="url(#clip0_3_836)">
<g clip-path="url(#clip1_3_836)">
<g clip-path="url(#clip2_3_836)">
<path d="M28.2058 8.30466C29.1981 7.98378 30.132 7.45356 30.9371 6.72172L29.6708 5.32899C27.9031 6.93583 25.3064 7.24694 23.2093 6.10305C21.9657 5.42473 20.6233 4.94167 19.2387 4.66512C19.4921 4.21269 19.6372 3.69172 19.6372 3.13728C19.6372 1.40738 18.2299 0 16.5 0C14.7701 0 13.3628 1.40738 13.3628 3.13728C13.3628 3.69172 13.5079 4.21269 13.7613 4.66512C12.3766 4.94155 11.0343 5.42473 9.79074 6.10299C7.69355 7.247 5.09683 6.93589 3.32915 5.32899L2.06296 6.72179C2.93099 7.51081 3.94889 8.065 5.02804 8.37554L0.5 15.7336V16.9412C0.5 20.228 3.174 22.902 6.46078 22.902H7.71568C10.7906 22.902 13.3619 20.5616 13.6765 17.5686V15.7479L9.38725 8.31334C9.83321 8.17069 10.2703 7.9855 10.6922 7.75541C12.2243 6.91972 13.8818 6.43756 15.5589 6.30606V26.1892H14.0994C11.4143 26.1892 9.22983 28.3737 9.22983 31.0587V31.9999H23.7157V31.0587C23.7157 28.3737 21.5312 26.1892 18.8462 26.1892H17.4412V6.30613C19.1183 6.43762 20.7758 6.91985 22.308 7.75554C22.8031 8.02557 23.3191 8.23485 23.8461 8.38461L19.3235 15.7336V16.9412C19.3235 20.228 21.9975 22.902 25.2843 22.902H26.5392C29.6141 22.902 32.1855 20.5616 32.5 17.5686V15.7479L28.2058 8.30466ZM2.54633 16L6.98676 8.78435H7.48591L11.6488 16H2.54633ZM21.3699 16L25.8103 8.78435H26.3095L30.4724 16H21.3699Z" fill="#23A6F0"/>
</g>
</g>
</g>
<defs>
<clipPath id="clip0_3_836">
<rect width="32" height="32" fill="white" transform="translate(0.5)"/>
</clipPath>
<clipPath id="clip1_3_836">
<rect width="32" height="31.9999" fill="white" transform="translate(0.5)"/>
</clipPath>
<clipPath id="clip2_3_836">
<rect width="32" height="31.9999" fill="white" transform="translate(0.5)"/>
</clipPath>
</defs>
</svg>
