<svg width="33" height="32" viewBox="0 0 33 32" fill="none" xmlns="http://www.w3.org/2000/svg">
<g clip-path="url(#clip0_3_819)">
<path d="M11.5796 6.16467H5.98438C5.46655 6.16467 5.04688 6.58435 5.04688 7.10217C5.04688 7.62 5.46655 8.03967 5.98438 8.03967H11.5796C12.0972 8.03967 12.5171 7.62 12.5171 7.10217C12.5171 6.58435 12.0972 6.16467 11.5796 6.16467Z" fill="#23A6F0"/>
<path d="M11.5796 9.91516H5.98438C5.46655 9.91516 5.04688 10.3348 5.04688 10.8527C5.04688 11.3705 5.46655 11.7902 5.98438 11.7902H11.5796C12.0972 11.7902 12.5171 11.3705 12.5171 10.8527C12.5171 10.3348 12.0972 9.91516 11.5796 9.91516Z" fill="#23A6F0"/>
<path d="M11.5796 13.6658H5.98438C5.46655 13.6658 5.04688 14.0854 5.04688 14.6033C5.04688 15.1211 5.46655 15.5408 5.98438 15.5408H11.5796C12.0972 15.5408 12.5171 15.1211 12.5171 14.6033C12.5171 14.0854 12.0972 13.6658 11.5796 13.6658Z" fill="#23A6F0"/>
<path d="M11.5796 17.4152H5.98438C5.46655 17.4152 5.04688 17.8348 5.04688 18.3527C5.04688 18.8705 5.46655 19.2902 5.98438 19.2902H11.5796C12.0972 19.2902 12.5171 18.8705 12.5171 18.3527C12.5171 17.8348 12.0972 17.4152 11.5796 17.4152Z" fill="#23A6F0"/>
<path d="M11.5796 21.2288H5.98438C5.46655 21.2288 5.04688 21.6487 5.04688 22.1663C5.04688 22.6841 5.46655 23.1038 5.98438 23.1038H11.5796C12.0972 23.1038 12.5171 22.6841 12.5171 22.1663C12.5171 21.6487 12.0972 21.2288 11.5796 21.2288Z" fill="#23A6F0"/>
<path d="M14.729 8.03967H20.3242C20.842 8.03967 21.2617 7.62 21.2617 7.10217C21.2617 6.58435 20.842 6.16467 20.3242 6.16467H14.729C14.2114 6.16467 13.7915 6.58435 13.7915 7.10217C13.7915 7.62 14.2114 8.03967 14.729 8.03967Z" fill="#23A6F0"/>
<path d="M14.729 11.7902H20.3242C20.842 11.7902 21.2617 11.3705 21.2617 10.8527C21.2617 10.3348 20.842 9.91516 20.3242 9.91516H14.729C14.2114 9.91516 13.7915 10.3348 13.7915 10.8527C13.7915 11.3705 14.2114 11.7902 14.729 11.7902Z" fill="#23A6F0"/>
<path d="M18.3613 14.6033C18.3613 14.0854 17.9417 13.6658 17.4238 13.6658H14.729C14.2114 13.6658 13.7915 14.0854 13.7915 14.6033C13.7915 15.1211 14.2114 15.5408 14.729 15.5408H17.4238C17.9417 15.5408 18.3613 15.1211 18.3613 14.6033Z" fill="#23A6F0"/>
<path d="M27.2418 21.6238C26.838 21.2998 26.2481 21.3645 25.9239 21.7683L23.5093 24.7785L22.0145 23.6955C21.5953 23.3916 21.0089 23.4853 20.7052 23.9045C20.4014 24.3239 20.4952 24.9101 20.9144 25.2138L23.1319 26.8205C23.2979 26.9406 23.4903 26.999 23.6815 26.999C23.9566 26.999 24.2286 26.8781 24.4132 26.6479L27.3865 22.9416C27.7105 22.5378 27.6458 21.9477 27.2418 21.6238Z" fill="#23A6F0"/>
<path d="M29.6116 18.7463C28.3904 17.5037 26.8213 16.7205 25.1211 16.4897V3.77563C25.1211 1.69385 23.4272 0 21.3455 0H4.96338C2.88135 0 1.1875 1.69385 1.1875 3.77563V25.4927C1.1875 27.5747 2.88135 29.2686 4.96313 29.2686H18.1392C19.6218 31.0103 21.7537 32 24.0601 32C28.3533 32 31.8459 28.5049 31.8459 24.2087C31.8459 22.1521 31.0525 20.2122 29.6116 18.7463ZM3.0625 25.4927V3.77563C3.0625 2.72778 3.91528 1.875 4.96338 1.875H21.3455C22.3936 1.875 23.2461 2.72778 23.2461 3.77563V16.46C19.334 16.8684 16.2742 20.1875 16.2742 24.2087C16.2742 25.3232 16.5066 26.4009 16.9524 27.3933H4.96338C3.91528 27.3933 3.0625 26.5408 3.0625 25.4927ZM24.0601 30.125C22.1877 30.125 20.4666 29.2654 19.3374 27.7668C18.5601 26.7349 18.1489 25.5046 18.1489 24.2087C18.1489 20.9465 20.8008 18.2925 24.0601 18.2925C24.0908 18.2925 24.1218 18.293 24.1526 18.2935L24.167 18.2937C25.7229 18.3213 27.1816 18.9487 28.2744 20.0605C29.3684 21.1736 29.9709 22.647 29.9709 24.2087C29.9709 27.4709 27.3193 30.125 24.0601 30.125Z" fill="#23A6F0"/>
</g>
<defs>
<clipPath id="clip0_3_819">
<rect width="32" height="32" fill="white" transform="translate(0.5)"/>
</clipPath>
</defs>
</svg>
