<svg width="20" height="19" fill="none" xmlns="http://www.w3.org/2000/svg"><path d="M.5.633A.633.633 0 011.133 0h1.9a.633.633 0 01.615.48l.513 2.053h14.706a.633.633 0 01.622.75l-1.9 10.133a.633.633 0 01-.622.517h-11.4a.633.633 0 01-.622-.517L3.046 3.302 2.54 1.267H1.133A.633.633 0 01.5.633zM4.43 3.8l1.663 8.867h10.349L18.105 3.8H4.429zm2.404 10.133a2.533 2.533 0 100 5.067 2.533 2.533 0 000-5.067zm8.867 0a2.533 2.533 0 100 5.067 2.533 2.533 0 000-5.067zM6.833 15.2a1.267 1.267 0 110 2.534 1.267 1.267 0 010-2.534zm8.867 0a1.267 1.267 0 110 2.534 1.267 1.267 0 010-2.534z" fill="#252B42"/></svg>