<svg width="20" height="20" fill="none" xmlns="http://www.w3.org/2000/svg"><path d="M4.998 12.137L3.63 18.055a.916.916 0 001.402.97l4.995-3.33 4.994 3.33a.918.918 0 001.392-1.014l-1.678-5.87 4.16-3.745a.918.918 0 00-.54-1.596l-5.23-.416-2.263-5.01a.915.915 0 00-1.67 0l-2.264 5.01-5.229.415a.917.917 0 00-.567 1.571l3.865 3.767zM7.615 8.17a.915.915 0 00.763-.537l1.65-3.652 1.65 3.652a.915.915 0 00.763.537l3.643.29-3 2.7a.92.92 0 00-.269.933l1.15 4.023-3.427-2.285a.913.913 0 00-1.017 0L5.94 16.217l.963-4.17a.917.917 0 00-.253-.862L3.863 8.468l3.752-.299z" fill="#F3CD03"/></svg>